<?xml version="1.0" encoding="utf-8"?>
<!-- Generator: Adobe Illustrator 23.0.1, SVG Export Plug-In . SVG Version: 6.00 Build 0)  -->
<svg version="1.1"
	 id="Layer_1" inkscape:version="0.92.3 (2405546, 2018-03-11)" sodipodi:docname="buttons.svg" xmlns:cc="http://creativecommons.org/ns#" xmlns:dc="http://purl.org/dc/elements/1.1/" xmlns:inkscape="http://www.inkscape.org/namespaces/inkscape" xmlns:rdf="http://www.w3.org/1999/02/22-rdf-syntax-ns#" xmlns:sodipodi="http://sodipodi.sourceforge.net/DTD/sodipodi-0.dtd" xmlns:svg="http://www.w3.org/2000/svg"
	 xmlns="http://www.w3.org/2000/svg" xmlns:xlink="http://www.w3.org/1999/xlink" x="0px" y="0px" viewBox="0 0 198 99"
	 style="enable-background:new 0 0 198 99;" xml:space="preserve">
<style type="text/css">
	.st0{fill:#C89900;}
	.st1{fill:#3F3F00;}
	.st2{fill:#949494;}
	.st3{fill:#454545;}
	.st4{fill:#FFFFFF;}
	.st5{fill:#414141;}
</style>
<sodipodi:namedview  bordercolor="#666666" borderopacity="1" gridtolerance="10" guidetolerance="10" id="namedview323" inkscape:current-layer="Layer_1" inkscape:cx="113.44845" inkscape:cy="60.187715" inkscape:guide-bbox="true" inkscape:pageopacity="0" inkscape:pageshadow="2" inkscape:window-height="1132" inkscape:window-maximized="1" inkscape:window-width="1865" inkscape:window-x="55" inkscape:window-y="32" inkscape:zoom="3.9999998" objecttolerance="10" pagecolor="#ffffff" showgrid="false" showguides="true">
	<sodipodi:guide  id="guide1039" inkscape:locked="false" orientation="0,1" position="95.768779,23.06936"></sodipodi:guide>
	<sodipodi:guide  id="guide1041" inkscape:locked="false" orientation="0,1" position="100.01142,9.9878837"></sodipodi:guide>
	<sodipodi:guide  id="guide1058" inkscape:locked="false" orientation="0,1" position="88.565128,56.038215"></sodipodi:guide>
	<sodipodi:guide  id="guide1060" inkscape:locked="false" orientation="0,1" position="98.553012,43.133516"></sodipodi:guide>
	<sodipodi:guide  id="guide1210" inkscape:locked="false" orientation="1,0" position="148.56251,90.250004"></sodipodi:guide>
	<sodipodi:guide  id="guide1212" inkscape:locked="false" orientation="1,0" position="142.12501,85.125004"></sodipodi:guide>
	<sodipodi:guide  id="guide1214" inkscape:locked="false" orientation="1,0" position="155.25001,82.187504"></sodipodi:guide>
	<sodipodi:guide  id="guide1272" inkscape:locked="false" orientation="1,0" position="115.43519,96.078138"></sodipodi:guide>
	<sodipodi:guide  id="guide1274" inkscape:locked="false" orientation="1,0" position="109.86672,96.475886"></sodipodi:guide>
	<sodipodi:guide  id="guide1278" inkscape:locked="false" orientation="1,0" position="120.95946,95.238449"></sodipodi:guide>
	<sodipodi:guide  id="guide1301" inkscape:locked="false" orientation="1,0" position="77.000003,99.937504"></sodipodi:guide>
	<sodipodi:guide  id="guide1303" inkscape:locked="false" orientation="1,0" position="88.000004,97.875004"></sodipodi:guide>
	<sodipodi:guide  id="guide1305" inkscape:locked="false" orientation="1,0" position="82.437504,69.250003"></sodipodi:guide>
	<sodipodi:guide  id="guide1325" inkscape:locked="false" orientation="1,0" position="16.500001,96.625004"></sodipodi:guide>
	<sodipodi:guide  id="guide1342" inkscape:locked="false" orientation="1,0" position="72,6.0230026"></sodipodi:guide>
	<sodipodi:guide  id="guide1344" inkscape:locked="false" orientation="1,0" position="92.937504,25.500001"></sodipodi:guide>
	<sodipodi:guide  id="guide1346" inkscape:locked="false" orientation="1,0" position="104.96117,29.521709"></sodipodi:guide>
	<sodipodi:guide  id="guide1348" inkscape:locked="false" orientation="1,0" position="125.9534,31.996583"></sodipodi:guide>
	<sodipodi:guide  id="guide1350" inkscape:locked="false" orientation="1,0" position="137.97422,31.775612"></sodipodi:guide>
	<sodipodi:guide  id="guide1352" inkscape:locked="false" orientation="1,0" position="158.96645,32.659496"></sodipodi:guide>
	<sodipodi:guide  id="guide1354" inkscape:locked="false" orientation="0,1" position="158.12676,27.046836"></sodipodi:guide>
	<sodipodi:guide  id="guide1356" inkscape:locked="false" orientation="0,1" position="156.93352,6.0104079"></sodipodi:guide>
	<sodipodi:guide  id="guide1358" inkscape:locked="false" orientation="1,0" position="170.98727,57.496623"></sodipodi:guide>
	<sodipodi:guide  id="guide1360" inkscape:locked="false" orientation="1,0" position="191.9795,58.866642"></sodipodi:guide>
	<sodipodi:guide  id="guide1362" inkscape:locked="false" orientation="0,1" position="189.15107,60.059885"></sodipodi:guide>
	<sodipodi:guide  id="guide1364" inkscape:locked="false" orientation="0,1" position="188.9743,39.023457"></sodipodi:guide>
	<sodipodi:guide  id="guide1366" inkscape:locked="false" orientation="0,1" position="189.15107,92.896158"></sodipodi:guide>
	<sodipodi:guide  id="guide1370" inkscape:locked="false" orientation="1,0" position="37.476661,16.572816"></sodipodi:guide>
	<sodipodi:guide  id="guide1372" inkscape:locked="false" orientation="1,0" position="61.474099,16.130874"></sodipodi:guide>
	<sodipodi:guide  id="guide1374" inkscape:locked="false" orientation="0,1" position="49.674254,28.549438"></sodipodi:guide>
	<sodipodi:guide  id="guide1376" inkscape:locked="false" orientation="0,1" position="49.188118,4.5520001"></sodipodi:guide>
	<sodipodi:guide  id="guide1378" inkscape:locked="false" orientation="1,0" position="49.497477,33.808544"></sodipodi:guide>
	<sodipodi:guide  id="guide1380" inkscape:locked="false" orientation="1,0" position="28.500001,16.531251"></sodipodi:guide>
	<sodipodi:guide  id="guide1382" inkscape:locked="false" orientation="1,0" position="4.4857088,16.528622"></sodipodi:guide>
	<sodipodi:guide  id="guide1384" inkscape:locked="false" orientation="0,1" position="80.593754,75.906253"></sodipodi:guide>
	<sodipodi:guide  id="guide1386" inkscape:locked="false" orientation="0,1" position="80.218754,88.937504"></sodipodi:guide>
	<sodipodi:guide  id="guide1388" inkscape:locked="false" orientation="0,1" position="63.953128,82.375004"></sodipodi:guide>
	<sodipodi:guide  id="guide1501" inkscape:locked="false" orientation="1,0" position="173.87501,39.023457"></sodipodi:guide>
</sodipodi:namedview>
<circle id="circle7" class="st0" cx="16.5" cy="16.6" r="12"/>
<circle id="circle25" class="st0" cx="49.5" cy="16.6" r="12"/>
<rect id="rect43" x="105" y="6.1" class="st0" width="21" height="21"/>
<rect id="rect61" x="138" y="6.1" class="st0" width="21" height="21"/>
<rect id="rect153" x="72" y="6.1" class="st0" width="21" height="21"/>
<rect id="rect277" x="171" y="6.1" class="st0" width="21" height="21"/>
<polygon id="polygon117-9-8-3" class="st1" points="48.8,17.9 45,17.9 45,15.3 48.8,15.3 48.8,12.2 54,16.6 48.8,21 "/>
<g id="polyline21-5-8">
	<polygon class="st1" points="15.7,21.5 11,16.8 12.2,15.5 15.5,18.7 20.6,11.7 22,12.8 	"/>
</g>
<g>
	<polygon id="polygon117-9-5-1-5-8" class="st1" points="114.1,14.9 110.8,15 115.5,10.2 120.2,14.9 117,14.9 117,19 114.1,19 	"/>
	<g>
		<rect id="rect10-7-7-7-3" x="110" y="22" class="st1" width="1" height="1"/>
		<rect id="rect10-7-7-7-3_1_" x="112" y="22" class="st1" width="1" height="1"/>
		<rect id="rect10-7-7-7-3_2_" x="114" y="22" class="st1" width="1" height="1"/>
		<rect id="rect10-7-7-7-3_3_" x="116" y="22" class="st1" width="1" height="1"/>
		<rect id="rect10-7-7-7-3_4_" x="118" y="22" class="st1" width="1" height="1"/>
		<rect id="rect10-7-7-7-3_5_" x="120" y="22" class="st1" width="1" height="1"/>
	</g>
</g>
<polygon id="polygon117-9-5-1-5-8_1_" class="st1" points="149.9,14.2 153.2,14.2 148.5,19 143.9,14.2 147.1,14.2 147.1,10.2 
	149.9,10.2 "/>
<g>
	<rect id="rect10-7-7-7-3_11_" x="143" y="22" class="st1" width="1" height="1"/>
	<rect id="rect10-7-7-7-3_10_" x="145" y="22" class="st1" width="1" height="1"/>
	<rect id="rect10-7-7-7-3_9_" x="147" y="22" class="st1" width="1" height="1"/>
	<rect id="rect10-7-7-7-3_8_" x="149" y="22" class="st1" width="1" height="1"/>
	<rect id="rect10-7-7-7-3_7_" x="151" y="22" class="st1" width="1" height="1"/>
	<rect id="rect10-7-7-7-3_6_" x="153" y="22" class="st1" width="1" height="1"/>
</g>
<g id="circle301-6">
	<path class="st1" d="M181,21.2c-2.8,0-5.1-2.3-5.1-5.1s2.3-5.1,5.1-5.1s5.1,2.3,5.1,5.1S183.8,21.2,181,21.2z M181,12.9
		c-1.8,0-3.1,1.4-3.1,3.1s1.4,3.1,3.1,3.1s3.1-1.4,3.1-3.1S182.7,12.9,181,12.9z"/>
</g>
<rect id="rect303-4" x="174.1" y="19.2" transform="matrix(0.7224 -0.6915 0.6915 0.7224 34.701 127.6282)" class="st1" width="4.4" height="2.7"/>
<rect id="rect305-3" x="180" y="15.1" class="st1" width="2" height="2"/>
<rect id="rect305-3_1_" x="189" y="16.1" class="st1" width="1" height="1"/>
<rect id="rect305-3_2_" x="174" y="16.1" class="st1" width="1" height="1"/>
<rect id="rect305-3_3_" x="187" y="16.1" class="st1" width="1" height="1"/>
<g>
	<rect id="rect273-1-9" x="77" y="10.2" class="st1" width="1" height="12.8"/>
	<rect id="rect273-1-9_2_" x="87" y="14.1" class="st1" width="1" height="8.9"/>
	<rect id="rect273-1-9_1_" x="77" y="22" class="st1" width="11" height="1"/>
	<rect id="rect273-1-9_3_" x="77" y="10.2" class="st1" width="7" height="1"/>
	<g>
		<g>
			<rect id="rect273-1-9_5_" x="79" y="12.2" class="st1" width="1" height="1"/>
			<rect id="rect273-1-9_6_" x="79" y="14.1" class="st1" width="1" height="1"/>
			<rect id="rect273-1-9_7_" x="79" y="16.1" class="st1" width="1" height="1"/>
			<rect id="rect273-1-9_8_" x="79" y="18.1" class="st1" width="1" height="1"/>
			<rect id="rect273-1-9_9_" x="79" y="20" class="st1" width="1" height="1"/>
		</g>
		<g>
			<rect id="rect273-1-9_14_" x="81" y="12.2" class="st1" width="1" height="1"/>
			<rect id="rect273-1-9_13_" x="81" y="14.1" class="st1" width="1" height="1"/>
			<rect id="rect273-1-9_12_" x="81" y="16.1" class="st1" width="1" height="1"/>
			<rect id="rect273-1-9_11_" x="81" y="18.1" class="st1" width="1" height="1"/>
			<rect id="rect273-1-9_10_" x="81" y="20" class="st1" width="1" height="1"/>
		</g>
		<g>
			<rect id="rect273-1-9_17_" x="83" y="16.1" class="st1" width="1" height="1"/>
			<rect id="rect273-1-9_16_" x="83" y="18.1" class="st1" width="1" height="1"/>
			<rect id="rect273-1-9_15_" x="83" y="20" class="st1" width="1" height="1"/>
		</g>
		<g>
			<rect id="rect273-1-9_20_" x="85" y="16.1" class="st1" width="1" height="1"/>
			<rect id="rect273-1-9_19_" x="85" y="18.1" class="st1" width="1" height="1"/>
			<rect id="rect273-1-9_18_" x="85" y="20" class="st1" width="1" height="1"/>
		</g>
	</g>
	<polygon class="st1" points="84,10.2 83.1,10.2 83.1,15.1 88,15.1 88,14.1 	"/>
</g>
<circle id="circle7_2_" class="st2" cx="16.5" cy="82.5" r="12"/>
<circle id="circle25_2_" class="st2" cx="49.5" cy="82.5" r="12"/>
<rect id="rect43_2_" x="105" y="72" class="st2" width="21" height="21"/>
<rect id="rect61_2_" x="138" y="72" class="st2" width="21" height="21"/>
<rect id="rect153_2_" x="72" y="72" class="st2" width="21" height="21"/>
<rect id="rect277_2_" x="171" y="72" class="st2" width="21" height="21"/>
<polygon id="polygon117-9-8-3_2_" class="st3" points="48.8,83.8 45,83.8 45,81.2 48.8,81.2 48.8,78.1 54,82.5 48.8,86.9 "/>
<g id="polyline21-5-8_2_">
	<polygon class="st3" points="15.7,87.4 11,82.7 12.2,81.4 15.5,84.6 20.6,77.6 22,78.7 	"/>
</g>
<g>
	<polygon id="polygon117-9-5-1-5-8_5_" class="st3" points="114.1,80.8 110.8,80.8 115.5,76.1 120.2,80.8 117,80.8 117,84.9 
		114.1,84.9 	"/>
	<g>
		<rect id="rect10-7-7-7-3_35_" x="110" y="87.9" class="st3" width="1" height="1"/>
		<rect id="rect10-7-7-7-3_34_" x="112" y="87.9" class="st3" width="1" height="1"/>
		<rect id="rect10-7-7-7-3_33_" x="114" y="87.9" class="st3" width="1" height="1"/>
		<rect id="rect10-7-7-7-3_32_" x="116" y="87.9" class="st3" width="1" height="1"/>
		<rect id="rect10-7-7-7-3_31_" x="118" y="87.9" class="st3" width="1" height="1"/>
		<rect id="rect10-7-7-7-3_30_" x="120" y="87.9" class="st3" width="1" height="1"/>
	</g>
</g>
<polygon id="polygon117-9-5-1-5-8_4_" class="st3" points="149.9,80.1 153.2,80.1 148.5,84.9 143.9,80.1 147.1,80.1 147.1,76.1 
	149.9,76.1 "/>
<g>
	<rect id="rect10-7-7-7-3_29_" x="143" y="87.9" class="st3" width="1" height="1"/>
	<rect id="rect10-7-7-7-3_28_" x="145" y="87.9" class="st3" width="1" height="1"/>
	<rect id="rect10-7-7-7-3_27_" x="147" y="87.9" class="st3" width="1" height="1"/>
	<rect id="rect10-7-7-7-3_26_" x="149" y="87.9" class="st3" width="1" height="1"/>
	<rect id="rect10-7-7-7-3_25_" x="151" y="87.9" class="st3" width="1" height="1"/>
	<rect id="rect10-7-7-7-3_24_" x="153" y="87.9" class="st3" width="1" height="1"/>
</g>
<g id="circle301-6_2_">
	<path class="st3" d="M181,87.1c-2.8,0-5.1-2.3-5.1-5.1s2.3-5.1,5.1-5.1s5.1,2.3,5.1,5.1S183.8,87.1,181,87.1z M181,78.8
		c-1.8,0-3.1,1.4-3.1,3.1s1.4,3.1,3.1,3.1s3.1-1.4,3.1-3.1S182.7,78.8,181,78.8z"/>
</g>
<rect id="rect303-4_2_" x="174.1" y="85.1" transform="matrix(0.7224 -0.6915 0.6915 0.7224 -10.8684 145.9236)" class="st3" width="4.4" height="2.7"/>
<rect id="rect305-3_11_" x="180" y="81" class="st3" width="2" height="2"/>
<rect id="rect305-3_10_" x="189" y="82" class="st3" width="1" height="1"/>
<rect id="rect305-3_9_" x="174" y="82" class="st3" width="1" height="1"/>
<rect id="rect305-3_8_" x="187" y="82" class="st3" width="1" height="1"/>
<g>
	<rect id="rect273-1-9_59_" x="77" y="76.1" class="st3" width="1" height="12.8"/>
	<rect id="rect273-1-9_58_" x="87" y="80" class="st3" width="1" height="8.9"/>
	<rect id="rect273-1-9_57_" x="77" y="87.9" class="st3" width="11" height="1"/>
	<rect id="rect273-1-9_56_" x="77" y="76.1" class="st3" width="7" height="1"/>
	<g>
		<g>
			<rect id="rect273-1-9_55_" x="79" y="78.1" class="st3" width="1" height="1"/>
			<rect id="rect273-1-9_54_" x="79" y="80" class="st3" width="1" height="1"/>
			<rect id="rect273-1-9_53_" x="79" y="82" class="st3" width="1" height="1"/>
			<rect id="rect273-1-9_52_" x="79" y="84" class="st3" width="1" height="1"/>
			<rect id="rect273-1-9_51_" x="79" y="85.9" class="st3" width="1" height="1"/>
		</g>
		<g>
			<rect id="rect273-1-9_50_" x="81" y="78.1" class="st3" width="1" height="1"/>
			<rect id="rect273-1-9_49_" x="81" y="80" class="st3" width="1" height="1"/>
			<rect id="rect273-1-9_48_" x="81" y="82" class="st3" width="1" height="1"/>
			<rect id="rect273-1-9_47_" x="81" y="84" class="st3" width="1" height="1"/>
			<rect id="rect273-1-9_46_" x="81" y="85.9" class="st3" width="1" height="1"/>
		</g>
		<g>
			<rect id="rect273-1-9_45_" x="83" y="82" class="st3" width="1" height="1"/>
			<rect id="rect273-1-9_44_" x="83" y="84" class="st3" width="1" height="1"/>
			<rect id="rect273-1-9_43_" x="83" y="85.9" class="st3" width="1" height="1"/>
		</g>
		<g>
			<rect id="rect273-1-9_42_" x="85" y="82" class="st3" width="1" height="1"/>
			<rect id="rect273-1-9_41_" x="85" y="84" class="st3" width="1" height="1"/>
			<rect id="rect273-1-9_40_" x="85" y="85.9" class="st3" width="1" height="1"/>
		</g>
	</g>
	<polygon class="st3" points="84,76.1 83.1,76.1 83.1,81 88,81 88,80 	"/>
</g>
<circle id="circle7_1_" class="st4" cx="16.5" cy="49.5" r="12"/>
<circle id="circle25_1_" class="st4" cx="49.5" cy="49.5" r="12"/>
<rect id="rect43_1_" x="105" y="39" class="st4" width="21" height="21"/>
<rect id="rect61_1_" x="138" y="39" class="st4" width="21" height="21"/>
<rect id="rect153_1_" x="72" y="39" class="st4" width="21" height="21"/>
<rect id="rect277_1_" x="171" y="39" class="st4" width="21" height="21"/>
<polygon id="polygon117-9-8-3_1_" class="st5" points="48.8,50.8 45,50.8 45,48.2 48.8,48.2 48.8,45.1 54,49.5 48.8,53.9 "/>
<g id="polyline21-5-8_1_">
	<polygon class="st5" points="15.7,54.4 11,49.7 12.2,48.4 15.5,51.6 20.6,44.6 22,45.7 	"/>
</g>
<g>
	<polygon id="polygon117-9-5-1-5-8_3_" class="st5" points="114.1,47.8 110.8,47.9 115.5,43.1 120.2,47.8 117,47.8 117,51.9 
		114.1,51.9 	"/>
	<g>
		<rect id="rect10-7-7-7-3_23_" x="110" y="54.9" class="st5" width="1" height="1"/>
		<rect id="rect10-7-7-7-3_22_" x="112" y="54.9" class="st5" width="1" height="1"/>
		<rect id="rect10-7-7-7-3_21_" x="114" y="54.9" class="st5" width="1" height="1"/>
		<rect id="rect10-7-7-7-3_20_" x="116" y="54.9" class="st5" width="1" height="1"/>
		<rect id="rect10-7-7-7-3_19_" x="118" y="54.9" class="st5" width="1" height="1"/>
		<rect id="rect10-7-7-7-3_18_" x="120" y="54.9" class="st5" width="1" height="1"/>
	</g>
</g>
<polygon id="polygon117-9-5-1-5-8_2_" class="st5" points="149.9,47.1 153.2,47.1 148.5,51.9 143.9,47.1 147.1,47.1 147.1,43.1 
	149.9,43.1 "/>
<g>
	<rect id="rect10-7-7-7-3_17_" x="143" y="54.9" class="st5" width="1" height="1"/>
	<rect id="rect10-7-7-7-3_16_" x="145" y="54.9" class="st5" width="1" height="1"/>
	<rect id="rect10-7-7-7-3_15_" x="147" y="54.9" class="st5" width="1" height="1"/>
	<rect id="rect10-7-7-7-3_14_" x="149" y="54.9" class="st5" width="1" height="1"/>
	<rect id="rect10-7-7-7-3_13_" x="151" y="54.9" class="st5" width="1" height="1"/>
	<rect id="rect10-7-7-7-3_12_" x="153" y="54.9" class="st5" width="1" height="1"/>
</g>
<g id="circle301-6_1_">
	<path class="st5" d="M181,54.1c-2.8,0-5.1-2.3-5.1-5.1s2.3-5.1,5.1-5.1s5.1,2.3,5.1,5.1S183.8,54.1,181,54.1z M181,45.8
		c-1.8,0-3.1,1.4-3.1,3.1s1.4,3.1,3.1,3.1s3.1-1.4,3.1-3.1S182.7,45.8,181,45.8z"/>
</g>
<rect id="rect303-4_1_" x="174.1" y="52.1" transform="matrix(0.7224 -0.6915 0.6915 0.7224 11.9509 136.762)" class="st5" width="4.4" height="2.7"/>
<rect id="rect305-3_7_" x="180" y="48" class="st5" width="2" height="2"/>
<rect id="rect305-3_6_" x="189" y="49" class="st5" width="1" height="1"/>
<rect id="rect305-3_5_" x="174" y="49" class="st5" width="1" height="1"/>
<rect id="rect305-3_4_" x="187" y="49" class="st5" width="1" height="1"/>
<g>
	<rect id="rect273-1-9_39_" x="77" y="43.1" class="st5" width="1" height="12.8"/>
	<rect id="rect273-1-9_38_" x="87" y="47" class="st5" width="1" height="8.9"/>
	<rect id="rect273-1-9_37_" x="77" y="54.9" class="st5" width="11" height="1"/>
	<rect id="rect273-1-9_36_" x="77" y="43.1" class="st5" width="7" height="1"/>
	<g>
		<g>
			<rect id="rect273-1-9_35_" x="79" y="45.1" class="st5" width="1" height="1"/>
			<rect id="rect273-1-9_34_" x="79" y="47" class="st5" width="1" height="1"/>
			<rect id="rect273-1-9_33_" x="79" y="49" class="st5" width="1" height="1"/>
			<rect id="rect273-1-9_32_" x="79" y="51" class="st5" width="1" height="1"/>
			<rect id="rect273-1-9_31_" x="79" y="52.9" class="st5" width="1" height="1"/>
		</g>
		<g>
			<rect id="rect273-1-9_30_" x="81" y="45.1" class="st5" width="1" height="1"/>
			<rect id="rect273-1-9_29_" x="81" y="47" class="st5" width="1" height="1"/>
			<rect id="rect273-1-9_28_" x="81" y="49" class="st5" width="1" height="1"/>
			<rect id="rect273-1-9_27_" x="81" y="51" class="st5" width="1" height="1"/>
			<rect id="rect273-1-9_26_" x="81" y="52.9" class="st5" width="1" height="1"/>
		</g>
		<g>
			<rect id="rect273-1-9_25_" x="83" y="49" class="st5" width="1" height="1"/>
			<rect id="rect273-1-9_24_" x="83" y="51" class="st5" width="1" height="1"/>
			<rect id="rect273-1-9_23_" x="83" y="52.9" class="st5" width="1" height="1"/>
		</g>
		<g>
			<rect id="rect273-1-9_22_" x="85" y="49" class="st5" width="1" height="1"/>
			<rect id="rect273-1-9_21_" x="85" y="51" class="st5" width="1" height="1"/>
			<rect id="rect273-1-9_4_" x="85" y="52.9" class="st5" width="1" height="1"/>
		</g>
	</g>
	<polygon class="st5" points="84,43.1 83.1,43.1 83.1,48 88,48 88,47 	"/>
</g>
</svg>
